<?xml version="1.0" encoding="utf-8"?>
<!-- Generator: Adobe Illustrator 19.2.0, SVG Export Plug-In . SVG Version: 6.00 Build 0)  -->
<svg version="1.1" id="Layer_1" xmlns="http://www.w3.org/2000/svg" xmlns:xlink="http://www.w3.org/1999/xlink" x="0px" y="0px"
	 viewBox="0 0 512 512" style="enable-background:new 0 0 512 512;" xml:space="preserve">
<style type="text/css">
	.st0{fill:#1D1D1B;}
</style>
<g>
	<g>
		<path class="st0" d="M208,64c8.8,0,16-7.2,16-16V16c0-8.8-7.2-16-16-16s-16,7.2-16,16v32C192,56.8,199.2,64,208,64z M332.4,106.2
			l22.6-22.6c6.2-6.3,6.2-16.4,0-22.6c-6.3-6.3-16.4-6.3-22.6,0l-22.6,22.6c-6.3,6.3-6.3,16.4,0,22.6
			C316.1,112.4,326.2,112.4,332.4,106.2z M16,224h32c8.8,0,16-7.2,16-16s-7.2-16-16-16H16c-8.8,0-16,7.2-16,16S7.2,224,16,224z
			 M352,208c0,8.8,7.2,16,16,16h32c8.8,0,16-7.2,16-16s-7.2-16-16-16h-32C359.2,192,352,199.2,352,208z M83.5,106.2
			c6.3,6.3,16.4,6.3,22.6,0c6.3-6.3,6.3-16.4,0-22.6L83.5,60.9c-6.3-6.3-16.4-6.3-22.6,0c-6.3,6.3-6.3,16.4,0,22.6L83.5,106.2z
			 M400,256c-5.3,0-10.6,0.4-15.8,1.1c-16.8-22.9-39.1-40.3-64.5-51.5C318.5,145,268.9,96,208,96c-61.8,0-112,50.3-112,112
			c0,17.4,4.3,33.8,11.5,48.4C47.9,258.9,0,307.8,0,368c0,61.8,50.3,112,112,112c13.7,0,27.1-2.5,39.7-7.3
			c29,25.3,65.8,39.3,104.3,39.3c38.5,0,75.3-14.1,104.3-39.3c12.6,4.8,26,7.3,39.7,7.3c61.8,0,112-50.3,112-112S461.8,256,400,256z
			 M256,192c-45.9,0-88.5,19.8-118.4,53.3c-5.9-11.2-9.6-23.7-9.6-37.3c0-44.2,35.8-80,80-80c39.8,0,72.6,29.2,78.7,67.3
			C276.7,193.2,266.5,192,256,192z"/>
	</g>
</g>
</svg>
