<svg xmlns="http://www.w3.org/2000/svg" viewBox="0 0 104.29 100.11"><defs><style>.cls-1{fill:#fff;}</style></defs><title>ico-like</title><g id="Capa_2" data-name="Capa 2"><g id="Capa_1-2" data-name="Capa 1"><path class="cls-1" d="M100.7,55.6a14.29,14.29,0,0,0,3.58-9.71A12.68,12.68,0,0,0,91.78,33.37H73.72c.17-.61.35-1.13.52-1.57A10.88,10.88,0,0,1,75,30.37c.3-.52.52-.91.65-1.17Q76.79,27,77.4,25.55a26.43,26.43,0,0,0,1.24-3.91,20.28,20.28,0,0,0,.62-5q0-1.56,0-2.54a27.28,27.28,0,0,0-.33-2.93A16.36,16.36,0,0,0,78.12,8,15.12,15.12,0,0,0,76.55,5a9.07,9.07,0,0,0-2.61-2.64A14.22,14.22,0,0,0,70,.68,19.41,19.41,0,0,0,64.66,0a4,4,0,0,0-2.93,1.24A11.29,11.29,0,0,0,59.51,4.5a19.56,19.56,0,0,0-1.27,3.39q-.36,1.44-.82,4-.59,2.74-.88,3.94A20.84,20.84,0,0,1,55.4,19a10,10,0,0,1-2,3.13,97.05,97.05,0,0,0-6.58,7.82q-3.19,4.17-6.58,7.89t-5,3.85A4.28,4.28,0,0,0,32.46,43a3.94,3.94,0,0,0-1.17,2.84V87.6a3.91,3.91,0,0,0,1.24,2.9,4.31,4.31,0,0,0,2.93,1.27q2.28.07,10.3,2.87,5,1.69,7.86,2.57t7.92,1.89a48.47,48.47,0,0,0,9.38,1h8.41Q88,100,92.16,95q3.78-4.49,3.2-11.8a12.67,12.67,0,0,0,3.52-6.12,13.4,13.4,0,0,0,0-7.62,13.54,13.54,0,0,0,2.8-8.93,15.62,15.62,0,0,0-1-5Zm0,0"/><path class="cls-1" d="M22.94,41.71H4.17A4,4,0,0,0,1.24,43,4,4,0,0,0,0,45.89V87.6a4,4,0,0,0,1.24,2.93,4,4,0,0,0,2.93,1.24H22.94a4.23,4.23,0,0,0,4.17-4.17V45.89a4.23,4.23,0,0,0-4.17-4.17Zm-7.5,40.51a4,4,0,0,1-2.93,1.21,4.12,4.12,0,0,1-4.17-4.17,4.08,4.08,0,0,1,1.2-2.93,4.13,4.13,0,0,1,5.9,0,4,4,0,0,1,1.24,2.93,4,4,0,0,1-1.24,3Zm0,0"/></g></g></svg>