<svg xmlns="http://www.w3.org/2000/svg" viewBox="0 0 104.29 100.11"><defs><style>.cls-1{fill:#fff;}</style></defs><title>ico-dislike</title><g id="Capa_2" data-name="Capa 2"><g id="Capa_1-2" data-name="Capa 1"><path class="cls-1" d="M100.7,44.52a15.62,15.62,0,0,0,1-5,13.54,13.54,0,0,0-2.8-8.93,13.4,13.4,0,0,0,0-7.62,12.67,12.67,0,0,0-3.52-6.12q.58-7.3-3.2-11.8Q88,.13,79.32,0H70.91a48.47,48.47,0,0,0-9.38,1Q56.44,2,53.61,2.9T45.75,5.47q-8,2.81-10.3,2.87a4.31,4.31,0,0,0-2.93,1.27,3.91,3.91,0,0,0-1.24,2.9V54.29a3.94,3.94,0,0,0,1.17,2.84,4.28,4.28,0,0,0,2.8,1.34q1.56.13,5,3.85T46.8,70.2A97.05,97.05,0,0,0,53.38,78a10,10,0,0,1,2,3.13,20.84,20.84,0,0,1,1.14,3.16q.29,1.21.88,3.94.46,2.54.82,4a19.56,19.56,0,0,0,1.27,3.39,11.29,11.29,0,0,0,2.22,3.26,4,4,0,0,0,2.93,1.24A19.41,19.41,0,0,0,70,99.43a14.22,14.22,0,0,0,3.91-1.7,9.07,9.07,0,0,0,2.61-2.64,15.12,15.12,0,0,0,1.57-2.93,16.36,16.36,0,0,0,.78-3.26A27.28,27.28,0,0,0,79.23,86q0-1,0-2.54a20.28,20.28,0,0,0-.62-5,26.43,26.43,0,0,0-1.24-3.91q-.61-1.43-1.79-3.65c-.13-.26-.35-.65-.65-1.17a10.88,10.88,0,0,1-.72-1.43c-.17-.44-.35-1-.52-1.57H91.78a12.68,12.68,0,0,0,12.51-12.52,14.29,14.29,0,0,0-3.58-9.71Zm0,0"/><path class="cls-1" d="M22.94,58.4a4.23,4.23,0,0,0,4.17-4.17V12.51a4,4,0,0,0-1.24-2.93,4,4,0,0,0-2.93-1.24H4.17A4,4,0,0,0,1.24,9.58,4,4,0,0,0,0,12.51V54.23a4,4,0,0,0,1.24,2.93A4,4,0,0,0,4.17,58.4Zm-7.5-40.51a4,4,0,0,1,1.24,3,4,4,0,0,1-1.24,2.93,4.13,4.13,0,0,1-5.9,0,4.08,4.08,0,0,1-1.2-2.93,4.12,4.12,0,0,1,4.17-4.17,4,4,0,0,1,2.93,1.21Zm0,0"/></g></g></svg>