<svg xmlns="http://www.w3.org/2000/svg" viewBox="0 0 236.46 236.46"><defs><style>.cls-1{fill:#fff;}.cls-2{fill:#ed1c24;}</style></defs><title>main-logo</title><g id="Capa_2" data-name="Capa 2"><g id="Capa_1-2" data-name="Capa 1"><circle class="cls-1" cx="118.23" cy="118.23" r="108.23"/><path class="cls-2" d="M118.23,236.46A118.23,118.23,0,1,1,236.46,118.23,118.36,118.36,0,0,1,118.23,236.46Zm0-216.46a98.23,98.23,0,1,0,98.23,98.23A98.34,98.34,0,0,0,118.23,20Z"/><path class="cls-1" d="M35.29,194.66l-2.41-2.6,6.67-6.19,2.41,2.6a4.53,4.53,0,0,1,0,6.62l0,0A4.56,4.56,0,0,1,35.29,194.66Zm5.2-1.08a2.61,2.61,0,0,0,.15-3.87l-1.05-1.13-4,3.73,1.05,1.13a2.59,2.59,0,0,0,3.86.17Z"/><path class="cls-1" d="M40,199.53l4.79-5.06,1.43,1.36-4.79,5.06Zm5.28-5.65,1.21-1.27L48,194l-1.21,1.27Z"/><path class="cls-1" d="M46.11,205l.49-.58a2.68,2.68,0,0,1-2.18-.69,2.16,2.16,0,0,1-.44-3.17l0,0c1-1.16,2.32-.94,3.58.13A4.92,4.92,0,0,1,48.69,202l.08-.09c.53-.62.44-1.3-.31-1.94a5.14,5.14,0,0,0-1.71-1l.6-1.47a6.17,6.17,0,0,1,2.42,1.33c1.64,1.4,1.64,2.87.42,4.3l-2.62,3.08ZM48,202.86a3,3,0,0,0-.79-1c-.64-.55-1.26-.63-1.66-.15l0,0c-.35.41-.21.93.28,1.34a1.34,1.34,0,0,0,2,.07Z"/><path class="cls-1" d="M55.43,205.85c-1-.79-2.17-.64-3.17.69l-1.54,2.06-1.58-1.19,4.18-5.57L54.9,203l-.84,1.12a2.15,2.15,0,0,1,2.7.11l-1.24,1.65Z"/><path class="cls-1" d="M53.75,210.8,57.68,205l1.63,1.12-3.93,5.75Zm4.32-6.41,1-1.45,1.72,1.17-1,1.45Z"/><path class="cls-1" d="M60,215a3.62,3.62,0,0,1-1.36-5v0a3.77,3.77,0,0,1,6.47,3.87v0A3.66,3.66,0,0,1,60,215Zm3.44-2.16a1.85,1.85,0,0,0-.58-2.59,1.79,1.79,0,0,0-2.53.69v0a1.85,1.85,0,0,0,.58,2.59,1.78,1.78,0,0,0,2.53-.7Z"/><path class="cls-1" d="M74.55,222.26l-1.68-7.07-2.34,5.29-1.81-.8,3.69-8.31,1.69.75L75.72,219,78,213.83l1.8.8-3.69,8.31Z"/><path class="cls-1" d="M82.19,225.12l.25-.71a2.68,2.68,0,0,1-2.28.14,2.16,2.16,0,0,1-1.56-2.8v0c.5-1.44,1.82-1.72,3.38-1.18a5,5,0,0,1,1.52.83l0-.11c.27-.77-.06-1.37-1-1.69a5.13,5.13,0,0,0-1.94-.28l0-1.59a6.13,6.13,0,0,1,2.74.36c2,.71,2.57,2.08,1.95,3.86L84,225.74Zm1-2.64a3,3,0,0,0-1.11-.66c-.8-.28-1.4-.13-1.61.46v0c-.18.5.14.94.74,1.15a1.35,1.35,0,0,0,1.86-.65Z"/><path class="cls-1" d="M89,227.33a3.56,3.56,0,0,1-2.56-4.42v0A3.58,3.58,0,0,1,91,220.34a3.43,3.43,0,0,1,2.38,1.86l-1.51.94A2,2,0,0,0,90.5,222a1.78,1.78,0,0,0-2.13,1.39v0a1.78,1.78,0,0,0,1.2,2.32,2.21,2.21,0,0,0,1.74-.3l.81,1.43A3.51,3.51,0,0,1,89,227.33Z"/><path class="cls-1" d="M93.43,228.26l1.47-6.81,1.93.42-1.47,6.81ZM95,220.68l.37-1.71,2,.44L97,221.12Z"/><path class="cls-1" d="M100.78,229.81a3.62,3.62,0,0,1-3.16-4.13v0a3.77,3.77,0,0,1,7.45,1.13v0A3.66,3.66,0,0,1,100.78,229.81Zm2.37-3.3a1.85,1.85,0,0,0-1.52-2.18,1.78,1.78,0,0,0-2.08,1.6v0a1.85,1.85,0,0,0,1.52,2.18,1.78,1.78,0,0,0,2.08-1.6Z"/><path class="cls-1" d="M110.72,230.76l.3-3.88c.07-.93-.33-1.45-1.08-1.51s-1.27.38-1.34,1.32l-.3,3.88-2-.15.54-6.95,2,.15-.08,1a2.47,2.47,0,0,1,2.12-1,2.28,2.28,0,0,1,2.16,2.76l-.35,4.5Z"/><path class="cls-1" d="M118.8,231v-.75a2.68,2.68,0,0,1-2.11.87,2.16,2.16,0,0,1-2.38-2.15v0c0-1.52,1.17-2.22,2.82-2.21a5,5,0,0,1,1.7.3v-.12c0-.82-.5-1.28-1.49-1.28a5.12,5.12,0,0,0-1.93.37l-.49-1.51a6.15,6.15,0,0,1,2.71-.54c2.16,0,3.1,1.13,3.09,3l0,4Zm.05-2.81a3.07,3.07,0,0,0-1.26-.27c-.85,0-1.37.33-1.37,1v0c0,.53.44.85,1.08.85.92,0,1.55-.5,1.55-1.21Z"/><path class="cls-1" d="M122.74,230.93l-.46-9.48,2-.1.46,9.48Z"/><path class="cls-1" d="M131.1,230.29l-1.1-9,2-.24,1.1,9Z"/><path class="cls-1" d="M139.75,229l-.7-3.82c-.17-.92-.69-1.32-1.43-1.18s-1.13.7-1,1.62l.7,3.83-1.94.35-1.25-6.86,1.94-.36.18,1a2.46,2.46,0,0,1,1.81-1.47,2.29,2.29,0,0,1,2.79,2.12l.81,4.44Z"/><path class="cls-1" d="M148.57,226.89l-.25-1a2.56,2.56,0,0,1-1.81,1.65,3.28,3.28,0,0,1-4-2.67v0c-.59-2.25.55-3.87,2.15-4.29A2.67,2.67,0,0,1,147,221l-.87-3.32,1.91-.5,2.42,9.17Zm-.87-3.39a1.71,1.71,0,1,0-3.28.86v0a1.71,1.71,0,1,0,3.28-.86Z"/><path class="cls-1" d="M157.71,221l-4.58,1.6a1.62,1.62,0,0,0,2.06.73,2.28,2.28,0,0,0,1.36-1.23l1.4.57a3.68,3.68,0,0,1-6.89,0v0A3.47,3.47,0,0,1,153.1,218c2.2-.77,3.8.59,4.45,2.46v0C157.63,220.68,157.66,220.8,157.71,221Zm-4.08-1.46a1.56,1.56,0,0,0-.94,1.9l2.81-1A1.5,1.5,0,0,0,153.63,219.51Z"/><path class="cls-1" d="M164.2,221.39a2.68,2.68,0,0,1-2.41-.08L163,224l-1.81.8-3.64-8.28,1.81-.79.4.92a2.56,2.56,0,0,1,1.53-1.91,3.28,3.28,0,0,1,4.35,2v0C166.59,218.94,165.71,220.72,164.2,221.39Zm-.37-3.8a1.71,1.71,0,1,0-3.11,1.37v0a1.71,1.71,0,1,0,3.11-1.37Z"/><path class="cls-1" d="M173.05,213.65l-4.28,2.29a1.62,1.62,0,0,0,2.15.4,2.29,2.29,0,0,0,1.15-1.43l1.47.35a3.68,3.68,0,0,1-6.81,1v0a3.47,3.47,0,0,1,1.33-4.82c2.05-1.1,3.84,0,4.78,1.73v0C172.93,213.38,173,213.49,173.05,213.65Zm-4.25-.8a1.55,1.55,0,0,0-.63,2l2.63-1.41A1.49,1.49,0,0,0,168.8,212.85Z"/><path class="cls-1" d="M179.68,212.81l-2.09-3.28c-.5-.79-1.13-1-1.77-.55a1.21,1.21,0,0,0-.28,1.86l2.09,3.28L176,215.18l-3.74-5.88,1.67-1.06.53.83a2.47,2.47,0,0,1,1.12-2,2.29,2.29,0,0,1,3.39.91l2.42,3.81Z"/><path class="cls-1" d="M187.08,207.56l-.6-.8a2.56,2.56,0,0,1-1.06,2.21,3.28,3.28,0,0,1-4.7-1l0,0c-1.4-1.86-.95-3.79.37-4.78a2.68,2.68,0,0,1,2.36-.47L181.38,200l1.58-1.19,5.7,7.59ZM185,204.75a1.71,1.71,0,1,0-2.71,2v0a1.71,1.71,0,1,0,2.71-2Z"/><path class="cls-1" d="M185.24,199.13l-1.13-1.34,1.59-1.34,1.13,1.34Zm5,5.88-4.5-5.32,1.51-1.28,4.5,5.32Z"/><path class="cls-1" d="M196.2,195.89l-3.53,3.33a1.62,1.62,0,0,0,2.18-.17,2.28,2.28,0,0,0,.74-1.68l1.51,0a3.68,3.68,0,0,1-6.3,2.78l0,0a3.47,3.47,0,0,1,0-5c1.69-1.6,3.71-1,5.06.43l0,0C196,195.65,196.08,195.74,196.2,195.89Zm-4.31.33a1.55,1.55,0,0,0-.08,2.11l2.17-2A1.49,1.49,0,0,0,191.88,196.22Z"/><path class="cls-1" d="M202.36,193.36l-2.87-2.62c-.69-.63-1.34-.63-1.85-.07a1.21,1.21,0,0,0,.21,1.87l2.87,2.62-1.33,1.46-5.14-4.7,1.33-1.46.73.67a2.46,2.46,0,0,1,.55-2.26,2.28,2.28,0,0,1,3.5,0l3.33,3Z"/><path class="cls-1" d="M206.54,188.6a1.79,1.79,0,0,1-2.9.26l-2.57-2.07-.52.65-1.32-1.06.52-.65-1.39-1.12,1.24-1.54,1.39,1.12,1-1.28,1.32,1.06-1,1.27,2.32,1.87a.57.57,0,0,0,.93-.07,2,2,0,0,0,.42-.91l1.23,1A2.91,2.91,0,0,1,206.54,188.6Z"/><path class="cls-1" d="M209.87,179.19l-2.81,4a1.62,1.62,0,0,0,2.1-.6,2.29,2.29,0,0,0,.4-1.79l1.47-.34a3.68,3.68,0,0,1-5.64,4l0,0a3.47,3.47,0,0,1-1-4.91c1.35-1.9,3.44-1.72,5.05-.57h0C209.64,179,209.72,179.08,209.87,179.19Zm-4.17,1.17a1.55,1.55,0,0,0,.33,2.09l1.73-2.43A1.49,1.49,0,0,0,205.7,180.36Z"/><path class="cls-2" d="M43.92,78.05H57.66C65.78,78.05,71,82.22,71,89.33v.09C71,97,65.18,101,57.21,101h-4.4v9.16H43.92ZM57,94c3.16,0,5.09-1.65,5.09-4.17v-.09c0-2.75-1.92-4.22-5.13-4.22H52.81V94Z"/><path class="cls-2" d="M71,103v-.09c0-5.13,3.89-7.79,9.71-7.79a19,19,0,0,1,6,1V95.7c0-2.57-1.6-4-4.95-4A17.46,17.46,0,0,0,74.94,93L73.15,86.9a24.89,24.89,0,0,1,10-1.93c4.44,0,7.47,1.05,9.44,3s2.66,4.4,2.66,7.88v14.25H86.67v-2.57a9.35,9.35,0,0,1-7.29,3.12C74.66,110.68,71,108,71,103Zm15.76-1.88V100a9.11,9.11,0,0,0-3.39-.64c-2.52,0-4,1.24-4,3.07v.09c0,1.69,1.28,2.7,3.07,2.7A4,4,0,0,0,86.81,101.15Zm-2.2-26.49,8.11,2.61L86,83.14H79.84Z"/><path class="cls-2" d="M98.51,114.71l2.8-5.77a17.11,17.11,0,0,0,8.66,2.34c4.35,0,6.51-2.15,6.51-6.09v-1a9.6,9.6,0,0,1-7.65,3.71c-6.09,0-11-4.4-11-11.5v-.09c0-7.15,5-11.55,10.72-11.55a10,10,0,0,1,7.79,3.48V85.34H125v18.83c0,4.54-1,7.7-3.21,9.9s-5.73,3.48-10.91,3.48A26.56,26.56,0,0,1,98.51,114.71Zm18-18.28v-.09a4.75,4.75,0,0,0-5-4.77,4.8,4.8,0,0,0-5.09,4.81v.09a5.07,5.07,0,0,0,10.13,0Z"/><path class="cls-2" d="M128.73,76.68h9.07v6.42h-9.07Zm.18,8.66h8.71v24.79h-8.71Z"/><path class="cls-2" d="M142.48,85.34h8.71v3.48a9.19,9.19,0,0,1,7.42-4c5.27,0,8.43,3.48,8.43,9.12v16.22h-8.71V96.7c0-2.7-1.42-4.17-3.48-4.17s-3.67,1.47-3.67,4.17v13.43h-8.71Z"/><path class="cls-2" d="M170.3,103v-.09c0-5.13,3.89-7.79,9.71-7.79a19,19,0,0,1,6,1V95.7c0-2.57-1.6-4-4.95-4A17.46,17.46,0,0,0,174.19,93l-1.79-6.14a24.89,24.89,0,0,1,10-1.93c4.44,0,7.47,1.05,9.44,3s2.66,4.4,2.66,7.88v14.25h-8.61v-2.57a9.35,9.35,0,0,1-7.29,3.12C173.92,110.68,170.3,108,170.3,103Zm15.76-1.88V100a9.1,9.1,0,0,0-3.39-.64c-2.52,0-4,1.24-4,3.07v.09c0,1.69,1.28,2.7,3.07,2.7A4,4,0,0,0,186.06,101.15Z"/><path d="M43.92,154.71,49.58,148a18.9,18.9,0,0,0,11.9,4.4c2.73,0,4.19-.94,4.19-2.52v-.1c0-1.52-1.21-2.36-6.19-3.51-7.81-1.78-13.84-4-13.84-11.53v-.11c0-6.81,5.4-11.74,14.21-11.74,6.24,0,11.11,1.68,15.1,4.87l-5.08,7.18a18.4,18.4,0,0,0-10.27-3.62c-2.46,0-3.67,1-3.67,2.36v.1c0,1.68,1.26,2.41,6.34,3.56,8.44,1.83,13.68,4.56,13.68,11.43v.11c0,7.5-5.92,12-14.83,12A25.63,25.63,0,0,1,43.92,154.71Z"/><path d="M80.15,123.47H90.37v36.69H80.15Z"/><path d="M97.08,123.47h29.51v8.65H107.14v5.56h17.61v8H107.14v5.82h19.71v8.65H97.08Z"/><path d="M140.07,132.38h-11v-8.91h32.19v8.91h-11v27.78H140.07Z"/><path d="M164.77,123.47h29.51v8.65H174.83v5.56h17.61v8H174.83v5.82h19.71v8.65H164.77Z"/></g></g></svg>