<?xml version="1.0" encoding="utf-8"?>
<!-- Generator: Adobe Illustrator 16.0.0, SVG Export Plug-In . SVG Version: 6.00 Build 0)  -->
<!DOCTYPE svg PUBLIC "-//W3C//DTD SVG 1.1//EN" "http://www.w3.org/Graphics/SVG/1.1/DTD/svg11.dtd">
<svg version="1.1" id="Layer_1" xmlns="http://www.w3.org/2000/svg" xmlns:xlink="http://www.w3.org/1999/xlink" x="0px" y="0px"
	 width="600.939px" height="600.941px" viewBox="0 0 600.939 600.941" enable-background="new 0 0 600.939 600.941"
	 xml:space="preserve">
<path fill="#FFDD67" d="M18.78,300.47c0,155.87,125.822,281.69,281.69,281.69c155.869,0,281.69-125.82,281.69-281.69
	c0-155.869-125.821-281.69-281.69-281.69C144.602,18.779,18.78,144.601,18.78,300.47z"/>
<path fill="#65B1EF" d="M420.887,447.19c0,66.051,89.859,66.051,89.859,0c0-48.387-44.546-95.235-44.546-95.235
	S420.887,398.803,420.887,447.19"/>
<g>
	<circle fill="#664E27" cx="408.451" cy="320.639" r="46.948"/>
	<circle fill="#664E27" cx="192.489" cy="320.639" r="46.948"/>
</g>
<g>
	<path fill="#917524" d="M240.376,184.331c-30.047,25.352-70.423,36.62-109.859,29.108c-5.634-0.939-10.329,18.779-3.756,20.657
		c45.07,8.451,92.019-4.695,126.761-33.803C258.216,195.599,244.132,180.575,240.376,184.331"/>
	<path fill="#917524" d="M470.423,212.5c-39.437,6.573-79.812-3.756-109.859-29.108c-3.756-3.756-18.779,11.268-13.146,15.962
		c34.742,30.047,81.69,42.253,126.761,33.803C480.752,231.279,476.057,211.561,470.423,212.5"/>
</g>
<path fill="#664E27" d="M230.917,510.091c45.698-24.847,96.473-24.41,142.17,0c5.643,3.052,10.155-2.18,6.771-6.974
	c-14.105-17.437-41.75-33.565-77.856-33.565s-63.75,15.692-77.854,33.565C220.762,507.912,225.276,513.143,230.917,510.091"/>
</svg>
